<?xml version="1.0" encoding="UTF-8"?>
<svg id="Layer_1" data-name="Layer 1" xmlns="http://www.w3.org/2000/svg" viewBox="0 0 24.95 23.26">
  <defs>
    <style>
      .cls-1 {
        fill: #fff;
      }

      .cls-2 {
        fill: none;
      }
    </style>
  </defs>
  <path class="cls-1" d="m18.2,0c-2.39.03-4.57,1.34-5.72,3.43C11.33,1.34,9.15.03,6.76,0,2.88.16-.14,3.44,0,7.32,0,14.36,11.4,22.49,11.88,22.84l.6.42.6-.42c.48-.34,11.87-8.48,11.87-15.52.15-3.88-2.87-7.16-6.75-7.32Zm-5.22,20.91l-.5.35-.5-.35c-.4-.29-9.82-7.02-9.82-12.84-.12-3.22,2.38-5.93,5.59-6.07,1.97.03,3.78,1.12,4.73,2.84.95-1.72,2.76-2.81,4.73-2.84,3.21.14,5.71,2.85,5.59,6.07,0,5.82-9.42,12.55-9.82,12.84Z"/>
  <path class="cls-2" d="m22.8,8.07c0,5.82-9.42,12.55-9.82,12.84l-.5.35-.5-.35c-.4-.29-9.82-7.02-9.82-12.84-.12-3.22,2.38-5.93,5.59-6.07,1.97.03,3.78,1.12,4.73,2.84.95-1.72,2.76-2.81,4.73-2.84,3.21.14,5.71,2.85,5.59,6.07Z"/>
</svg>